<svg width="625" height="730" viewBox="0 0 625 730" fill="none" xmlns="http://www.w3.org/2000/svg">
<path opacity="0.35" fill-rule="evenodd" clip-rule="evenodd" d="M466.359 23.9878H618.33C618.715 26.8242 619.1 29.6195 619.477 32.3571L619.485 32.4142C620.965 43.1599 622.323 53.0141 623.079 60.9689C624.028 70.9638 624.028 80.9587 624.028 90.9536C624.028 98.9495 624.028 108.944 623.079 118.939C622.981 119.969 622.883 121.02 622.783 122.093L622.783 122.095C621.913 131.439 620.885 142.473 618.33 155.92H466.359V179.908H430.266V0H466.359V23.9878ZM260.249 550.719V729.627H224.156V705.64H5.69889C5.31126 702.784 4.92363 699.971 4.54407 697.216L4.54343 697.211C3.06316 686.466 1.70571 676.613 0.949814 668.659C0 658.664 0 648.669 0 638.674C0 630.678 0 620.683 0.949814 610.688C1.04767 609.658 1.14553 608.607 1.24547 607.534C2.11551 598.19 3.14302 587.155 5.69889 573.707H224.156V549.719H260.249V550.719ZM414.119 178.909V0H378.026V24.9872H250.751C211.808 24.9872 176.665 27.9857 146.271 33.9827C114.927 39.9796 89.2823 50.974 67.4366 65.9663C46.5407 80.9587 29.444 101.948 18.0462 127.935C6.64847 153.921 0.949585 186.905 0.949585 226.884C0.949585 266.864 6.64847 299.847 18.0462 327.833C29.444 353.819 45.5909 374.809 67.4366 389.801C89.2823 404.793 115.877 415.788 146.271 421.785C170.966 426.782 233.654 429.781 277.346 430.78H279.245H306.79H346.682C377.076 430.78 413.169 431.78 424.567 432.779C442.613 433.779 457.81 437.776 469.208 442.774C480.606 447.771 489.154 454.768 493.903 464.763C498.652 473.758 501.502 486.751 501.502 501.744C501.502 516.736 498.652 529.73 493.903 538.725C489.154 548.72 480.606 555.716 469.208 560.714C457.81 565.711 442.613 569.709 424.567 571.708C406.52 573.707 373.277 574.707 346.682 574.707H311.539V550.719H275.446V725.63H311.539V701.642H363.779C402.721 701.642 449.262 698.643 479.656 692.646C511 686.649 536.645 675.655 558.491 660.663C579.387 645.67 596.483 624.681 607.881 598.694C619.279 572.708 624.978 539.724 624.978 499.745C624.978 459.765 619.279 426.782 607.881 400.795C596.483 374.809 580.336 353.819 558.491 338.827C536.645 323.835 510.05 312.84 479.656 306.843C454.961 301.846 392.273 298.847 348.582 297.848H346.682H319.137H279.245C248.851 297.848 212.758 296.848 201.36 295.849C183.314 294.849 168.117 290.852 156.719 285.854C145.321 280.857 136.773 273.86 132.024 263.865C127.275 254.87 124.425 241.877 124.425 226.884C124.425 211.892 126.325 199.898 132.024 190.903C136.773 180.908 145.321 173.911 156.719 168.914C168.117 163.916 183.314 159.918 201.36 157.919C219.407 155.92 241.253 154.921 267.848 154.921H378.026V178.909H414.119Z" fill="white"/>
</svg>
